<?xml version="1.0" encoding="UTF-8"?>
<svg width="342px" height="112px" viewBox="0 0 342 112" version="1.1" xmlns="http://www.w3.org/2000/svg" xmlns:xlink="http://www.w3.org/1999/xlink">
    <!-- Generator: Sketch 48.2 (47327) - http://www.bohemiancoding.com/sketch -->
    <title>BIC</title>
    <desc>Created with Sketch.</desc>
    <defs></defs>
    <g id="Page-1" stroke="none" stroke-width="1" fill="none" fill-rule="evenodd">
        <g id="BIC" fill-rule="nonzero">
            <g id="Asset-2" transform="translate(82.000000, 0.000000)">
                <g id="Group-2" transform="translate(0.000000, 67.000000)">
                    <g id="Group-3" transform="translate(27.000000, 0.000000)" fill="#0051A4">
                        <path d="M0,0.0162299175 L4.96522834,0.0162299175 C6.20092942,-0.0765346529 7.43389785,0.230045788 8.48976867,0.892614991 C9.62376417,1.64393991 10.2779744,2.95769437 10.2048735,4.33680833 C10.2467259,5.84582282 9.41725833,7.23918101 8.08671905,7.89493173 C9.92983256,8.40939907 11.1859946,10.1500751 11.1224545,12.1015801 C11.1752616,13.6699933 10.4033098,15.147518 9.09863087,15.9752021 C7.93235962,16.8515872 6.94617437,16.9655172 4.89662415,16.9655172 L0,16.9655172 L0,0.0162299175 Z M2.64983689,7.02731051 L4.82801996,7.02731051 C5.41280181,7.06093117 5.99780101,6.96527575 6.54312474,6.74686728 C7.29335693,6.3451167 7.73573038,5.52376525 7.66651838,4.66107081 C7.70968951,3.82706809 7.2698982,3.04482001 6.54312474,2.66291284 C5.98799194,2.42447008 5.38587385,2.32241349 4.78514234,2.36494191 L2.64983689,2.36494191 L2.64983689,7.02731051 Z M2.64983689,14.5817498 L5.3425514,14.5817498 C5.94596504,14.5983614 6.54734695,14.5033525 7.11768485,14.3013066 C7.99088203,13.8565495 8.54276677,12.945278 8.54276677,11.9482127 C8.54276677,10.9511474 7.99088203,10.0398758 7.11768485,9.59511877 C6.47253725,9.35890559 5.7854531,9.26627849 5.10243673,9.3234394 L2.64983689,9.3234394 L2.64983689,14.5817498 Z" id="Shape"></path>
                        <polygon id="Shape" points="13.90625 0 16.6875 0 16.6875 16.9655172 13.90625 16.9655172"></polygon>
                        <path d="M18.078125,10.6034481 C18.0781251,7.08977451 20.8798432,4.24137931 24.3359375,4.24137931 C27.7920318,4.24137931 30.5937499,7.08977451 30.59375,10.6034481 C30.59375,14.1171219 27.7920319,16.9655172 24.3359375,16.9655172 C20.8798431,16.9655172 18.078125,14.1171219 18.078125,10.6034481 Z M20.3259971,10.6453039 C20.2590644,12.147374 21.0091637,13.5654026 22.2786852,14.3367721 C23.5482068,15.1081415 25.1319022,15.1081415 26.4014237,14.3367721 C27.6709453,13.5654026 28.4210446,12.147374 28.3541118,10.6453039 C28.4210446,9.1432337 27.6709453,7.72520512 26.4014237,6.95383566 C25.1319022,6.18246621 23.5482068,6.18246621 22.2786852,6.95383566 C21.0091637,7.72520512 20.2590644,9.1432337 20.3259971,10.6453039 Z" id="Shape"></path>
                        <path d="M45.890625,12.3798288 C44.9931479,15.425647 41.9981719,17.3506592 38.8574359,16.9003907 C35.7166999,16.4501223 33.3820884,13.7610392 33.375,10.5855389 C33.391555,7.40509104 35.7471101,4.72308948 38.8964856,4.2988539 C42.0458611,3.87461833 45.0260835,5.83786578 45.8822083,8.90075959 L43.5171171,8.90075959 C42.9837887,7.64555059 41.8664372,6.73420782 40.5304656,6.46476404 C39.194494,6.19532026 37.8116882,6.6024219 36.8342615,7.55293616 C36.0711213,8.37962062 35.6551977,9.46858358 35.6727576,10.5939628 C35.6287808,11.7048777 36.0428216,12.7850752 36.8178883,13.5815124 C37.592955,14.3779497 38.6609496,14.8206511 39.771688,14.805911 C41.398165,14.8390869 42.8811742,13.8784754 43.5171171,12.3798288 L45.890625,12.3798288 Z" id="Shape"></path>
                        <polygon id="Shape" points="48.688346 0 50.9531118 0 50.9531118 9.4184856 55.5485274 4.49498756 58.2580108 4.49498756 53.0366963 9.96942766 58.40625 16.9655172 55.7873572 16.9655172 50.9366408 10.546605 50.9366408 16.9655172 48.671875 16.9655172"></polygon>
                        <path d="M72.3125,12.3977252 C71.4036661,15.4357229 68.4143781,17.3501864 65.2822793,16.9001688 C62.1501806,16.4501512 59.8177569,13.7710682 59.796875,10.5994896 C59.8134411,7.41204801 62.1705814,4.72414875 65.3220763,4.29898029 C68.4735712,3.87381183 71.4557991,5.84137643 72.3125,8.91100552 L69.9458172,8.91100552 C69.4121299,7.65303633 68.2940265,6.73968952 66.9571559,6.46965324 C65.6202852,6.19961696 64.2365488,6.60761381 63.2584644,7.56021823 C62.4948107,8.38872057 62.0786072,9.48007815 62.0961789,10.6079321 C62.0521725,11.7212898 62.4664919,12.8038627 63.2420801,13.6020513 C64.0176684,14.4002399 65.0863818,14.8439148 66.1978676,14.8291423 C67.8254392,14.8623911 69.3094464,13.8996673 69.9458172,12.3977252 L72.3125,12.3977252 Z" id="Shape"></path>
                        <path d="M73.703125,0 L76.0013908,0 L76.0013908,6.23526484 C76.8209577,4.82516685 78.3360433,4.01070594 79.921962,4.12769285 C81.4105614,3.99169764 82.8633212,4.6511645 83.7749371,5.87671525 C84.5426457,7.15883977 84.9058654,8.65643508 84.8142264,10.1618201 L84.8142264,16.9655172 L82.490612,16.9655172 L82.490612,10.2667615 C82.5491521,9.28298885 82.3099172,8.30479832 81.806202,7.46832563 C81.1365475,6.76107058 80.2172687,6.36690394 79.2605502,6.37680583 C78.3038317,6.38670772 77.3923529,6.79982243 76.7364979,7.5207963 C76.2420111,8.21664044 75.9835754,9.06211401 76.0013908,9.9257021 L76.0013908,16.9217917 L73.703125,16.9217917 L73.703125,0 Z" id="Shape"></path>
                        <path d="M100.125,16.6062453 L97.9022396,16.6062453 L97.9022396,14.5082435 C97.026766,16.0983105 95.358851,17.0461084 93.5874695,16.9601251 C89.8365614,16.9601251 87.6138011,13.9605723 87.6138011,10.5987141 C87.5512335,8.92855011 88.1542195,7.3047272 89.2825957,6.10470125 C90.4109718,4.9046753 91.9664531,4.23297224 93.5874695,4.24572874 C95.3460318,4.16901042 96.9987104,5.11206727 97.869552,6.68918463 L97.869552,4.59960856 L100.125,4.59960856 L100.125,16.6062453 Z M89.8283895,10.6492683 C89.8171073,11.7662845 90.2453106,12.8403407 91.0152502,13.626254 C91.7851899,14.4121673 92.8311444,14.8428528 93.9143461,14.8199948 C95.4809241,14.8650155 96.9156045,13.9200398 97.5345036,12.4355188 C97.7852422,11.8746693 97.9215351,11.26668 97.9349273,10.6492683 C97.9658328,10.0346153 97.8508244,9.42146904 97.5998789,8.8630178 C96.9804081,7.31678011 95.4951325,6.32942745 93.8734865,6.38585907 C92.7915501,6.37408987 91.7514163,6.81611044 90.9917413,7.61050022 C90.2320664,8.40488999 89.8180667,9.48345247 89.8447333,10.5987141 L89.8283895,10.6492683 Z" id="Shape"></path>
                        <path d="M104.296875,0 L107.078125,0 L107.078125,2.52864079 L104.296875,2.52864079 L104.296875,0 Z M104.296875,4.49730576 L107.078125,4.49730576 L107.078125,16.9655172 L104.296875,16.9655172 L104.296875,4.49730576 Z" id="Shape"></path>
                        <path d="M109.859375,4.60614103 L112.031962,4.60614103 L112.031962,6.51425525 C112.60681,5.23928802 113.959394,4.21584494 116.10662,4.24186468 C119.961484,4.24186468 120.984375,7.14740224 120.984375,9.7146832 L120.984375,16.9655172 L118.659622,16.9655172 L118.659622,10.2264047 C118.659622,7.9973804 117.814257,6.4101763 115.464143,6.43619603 C113.114029,6.46221577 112.167221,7.91064793 112.167221,10.0442666 L112.167221,16.9308243 L109.859375,16.9308243 L109.859375,4.60614103 Z" id="Shape"></path>
                    </g>
                    <g id="Group-4" transform="translate(0.000000, 25.000000)" fill="#898989">
                        <polygon id="Shape" points="0 0.0344827586 2.78125 0.0344827586 2.78125 17 0 17"></polygon>
                        <path d="M5.5625,4.64062379 L7.72827947,4.64062379 L7.72827947,6.54873801 C8.30356464,5.27377078 9.65717681,4.2503277 11.8060361,4.27634744 C15.6638308,4.31971367 16.6875,7.181885 16.6875,9.74916596 L16.6875,17 L14.3609791,17 L14.3609791,10.278234 C14.3609791,8.04920965 13.5149715,6.46200555 11.1630703,6.47935204 C8.8111692,6.49669853 7.86364068,7.96247719 7.86364068,10.0960958 L7.86364068,16.9826535 L5.5625,16.9826535 L5.5625,4.64062379 Z" id="Shape"></path>
                        <polygon id="Shape" points="24.7320273 17 22.5005356 17 18.078125 4.27586207 20.3988763 4.27586207 23.6446823 13.9551361 26.8904882 4.27586207 29.203125 4.27586207"></polygon>
                        <path d="M32.8793891,11.3372329 C33.0136917,13.4516392 34.7902702,15.0753704 36.8898884,15.0026901 C38.3293033,15.0591452 39.6698961,14.2663632 40.3238784,12.9719425 L42.6884019,12.9719425 C42.202486,14.1947087 41.3643228,15.2425271 40.2821023,15.9801454 C39.2785603,16.6558804 38.096499,17.0111688 36.8898884,16.9997323 C34.0528044,16.9940191 31.5685398,15.0789002 30.8186484,12.3194148 C30.068757,9.55992945 31.2377524,6.6350596 33.6755307,5.17138908 C36.113309,3.70771857 39.2200457,4.06538911 41.2680167,6.04549232 C42.6341081,7.45559779 43.2944479,9.41321488 43.0643862,11.3709382 L32.8793891,11.3372329 Z M40.8084804,9.55084912 C40.5513407,7.57042563 38.84411,6.11130258 36.8648228,6.18031373 C34.878898,6.08712899 33.1599722,7.55936656 32.9295204,9.55084912 L40.8084804,9.55084912 Z" id="Shape"></path>
                        <path d="M50.2764423,7.76677864 C50.3022035,7.30690321 50.1286587,6.85913088 49.803249,6.54586749 C49.4778393,6.23260411 49.0345984,6.08661287 48.5946933,6.14780284 C48.1768206,6.11252061 47.763741,6.25998964 47.4551997,6.55460102 C47.1466583,6.84921239 46.9707008,7.26418672 46.969815,7.69932131 C46.969815,8.64372386 47.8391249,9.09062864 49.0740324,9.4447796 C50.8451497,9.95070954 52.7787549,10.481936 52.84375,13.0621787 C52.84375,15.4063207 51.0157619,17 48.7165592,17 C46.8885711,17 44.6056171,15.9122506 44.5,13.1717968 L46.6935857,13.1717968 C46.708146,13.7132796 46.9329953,14.2256572 47.3170327,14.5924831 C47.7010701,14.9593091 48.2116765,15.1494262 48.7328079,15.1196271 C49.2145747,15.1494723 49.6876332,14.9767628 50.0452989,14.6404483 C50.4029647,14.3041337 50.6151186,13.8325352 50.6339155,13.332008 C50.6339155,12.1346404 49.7402325,11.7383286 47.6685127,11.0300267 C46.0436344,10.5240968 44.7762293,9.73147323 44.7599805,7.91855762 C44.7599805,5.6418729 46.5473466,4.27586207 48.651564,4.27586207 C50.2764423,4.27586207 52.3319133,5.11907863 52.5025256,7.76677864 L50.2764423,7.76677864 Z" id="Shape"></path>
                        <polygon id="Shape" points="56.4742498 6.3867084 54.234375 6.3867084 54.234375 4.53178852 56.4483053 4.53178852 56.4483053 0.0344827586 58.8092545 0.0344827586 58.8092545 4.53178852 61.1875 4.53178852 61.1875 6.3867084 58.8092545 6.3867084 58.8092545 17 56.4483053 17"></polygon>
                        <path d="M63.96875,4.64205636 L66.1147445,4.64205636 L66.1147445,6.37044008 C66.865894,5.05227097 68.2435578,4.2535602 69.7220193,4.27909578 C70.8800835,4.23148262 72.0001241,4.71157629 72.7865329,5.59266741 C73.0836094,5.96020739 73.3411948,6.36008516 73.5547488,6.78525218 C73.7752973,6.33981071 74.0565061,5.9294529 74.3897662,5.56674165 C76.1906096,3.87835383 78.9350543,3.87835383 80.7358978,5.56674165 C81.7796695,6.67290724 82.046875,7.84820817 82.046875,10.207452 L82.046875,17 L79.7672777,17 L79.7672777,10.2593035 C79.8393502,9.29750839 79.6110334,8.33718561 79.1159642,7.51981526 C78.6358341,6.81209607 77.827275,6.42334218 76.9950202,6.50006886 C76.0967302,6.4587457 75.2413463,6.89974736 74.7321233,7.66672788 C74.3003422,8.41562053 74.1102353,9.28737 74.189362,10.1556004 L74.189362,16.9481485 L71.8930644,16.9481485 L71.8930644,10.1642424 C71.9646892,9.31763514 71.7963927,8.46777341 71.4087543,7.71857939 C70.8927878,6.95869292 70.0516037,6.50643502 69.1542076,6.50643502 C68.2568114,6.50643502 67.4156273,6.95869292 66.8996608,7.71857939 C66.4491535,8.47197836 66.2280362,9.34820569 66.2650476,10.2333777 L66.2650476,16.9827162 L63.9938005,16.9827162 L63.96875,4.64205636 Z" id="Shape"></path>
                        <path d="M85.7158328,11.3372329 C85.8501973,13.4516392 87.6275941,15.0753704 89.7281793,15.0026901 C91.1677293,15.0570265 92.507891,14.2648642 93.163751,12.9719425 L95.5293636,12.9719425 C95.0454696,14.1935851 94.2099347,15.2412747 93.1303147,15.9801454 C92.1263105,16.6558804 90.9437047,17.0111688 89.7365383,16.9997323 C86.8981476,16.9940191 84.4127388,15.0789002 83.662502,12.3194148 C82.9122652,9.55992945 84.081799,6.6350596 86.5207002,5.17138908 C88.9596013,3.70771857 92.0677689,4.06538911 94.1166832,6.04549232 C95.4846119,7.45449121 96.1428252,9.41402025 95.905521,11.3709382 L85.7158328,11.3372329 Z M93.6485762,9.55084912 C93.3913181,7.57042563 91.683301,6.11130258 89.7031021,6.18031373 C87.7159436,6.09093459 85.996096,7.56016421 85.7576281,9.55084912 L93.6485762,9.55084912 Z" id="Shape"></path>
                        <path d="M98.734375,4.64062379 L100.906962,4.64062379 L100.906962,6.54873801 C101.48181,5.27377078 102.834394,4.2503277 104.98162,4.27634744 C108.836484,4.31971367 109.859375,7.181885 109.859375,9.74916596 L109.859375,17 L107.526168,17 L107.526168,10.278234 C107.526168,8.04920965 106.680804,6.46200555 104.339143,6.47935204 C101.997483,6.49669853 101.042221,7.96247719 101.042221,10.0960958 L101.042221,16.9826535 L98.734375,16.9826535 L98.734375,4.64062379 Z" id="Shape"></path>
                        <polygon id="Shape" points="114.848242 6.3867084 112.640625 6.3867084 112.640625 4.53178852 114.865625 4.53178852 114.865625 0.0344827586 117.238379 0.0344827586 117.238379 4.53178852 119.59375 4.53178852 119.59375 6.3867084 117.203613 6.3867084 117.203613 17 114.830859 17"></polygon>
                        <path d="M143.183388,11.714064 C141.979509,14.9428117 138.845714,17.0622451 135.373853,16.9957709 C132.253836,17.0932701 129.327791,15.4989345 127.738696,12.8355467 C126.149601,10.1721589 126.149601,6.8623239 127.738696,4.19893606 C129.327791,1.53554822 132.253836,-0.0587873357 135.373853,0.0387118856 C138.866069,0.028776554 141.998296,2.16697531 143.234375,5.40465653 L140.455574,5.40465653 C139.450548,3.53425877 137.494586,2.35798674 135.356857,2.33840245 C133.737056,2.35104006 132.191242,3.0124271 131.07091,4.17217352 C129.950579,5.33191994 129.350944,6.89146201 129.408354,8.49618194 C129.343958,10.1067677 129.93994,11.6746136 131.060538,12.84257 C132.181136,14.0105264 133.730921,14.6791318 135.356857,14.6960803 C137.470152,14.6705232 139.411082,13.535358 140.455574,11.714064 L143.183388,11.714064 Z" id="Shape"></path>
                        <polygon id="Shape" points="147.015625 0.0344827586 149.796875 0.0344827586 149.796875 17 147.015625 17"></polygon>
                        <path d="M162.703125,16.6364881 L160.537346,16.6364881 L160.537346,14.7335225 C159.96206,16.0050495 158.608448,17.0170812 156.459589,16.9997815 C152.576414,16.9997815 151.578125,14.0934341 151.578125,11.5330805 L151.578125,4.31046144 L153.870806,4.31046144 L153.870806,10.9881404 C153.870806,13.2111501 154.716813,14.8027213 157.085635,14.8027213 C159.454456,14.8027213 160.385064,13.3062984 160.385064,11.1957367 L160.385064,4.27586207 L162.686205,4.27586207 L162.703125,16.6364881 Z" id="Shape"></path>
                        <path d="M165.484375,0.0344827586 L167.730757,0.0344827586 L167.730757,6.38741005 C168.731182,4.94512887 170.333087,4.08627706 172.042495,4.07569796 C173.66249,4.05990864 175.217447,4.73796376 176.342598,5.95080248 C177.467748,7.16364119 178.064081,8.80453572 177.991705,10.4885585 C178.078746,12.2016549 177.477716,13.8753505 176.332378,15.1093077 C175.18704,16.343265 173.600403,17.0265046 171.951981,16.9956 C170.185614,17.0730611 168.524175,16.1229059 167.640244,14.5297737 L167.640244,16.6360003 L165.484375,16.6360003 L165.484375,0.0344827586 Z M175.753551,10.5142442 C175.753551,8.18304198 173.937326,6.29322918 171.696898,6.29322918 C169.45647,6.29322918 167.640244,8.18304198 167.640244,10.5142442 C167.602162,11.6389934 168.006291,12.7313092 168.75938,13.5391456 C169.512469,14.3469821 170.549458,14.8005505 171.63107,14.7951925 C172.729023,14.8187555 173.788709,14.375299 174.565244,13.5673011 C175.34178,12.7593031 175.767968,11.6566829 175.745323,10.5142442 L175.753551,10.5142442 Z" id="Shape"></path>
                    </g>
                </g>
                <g id="Group" transform="translate(60.000000, 0.000000)">
                    <polygon id="Shape" fill="#63A7DC" points="7.47125123 41.4606678 7.46259392 41.4520374 7.46259392 19.5565931 0 15.25 0 45.75 0.00865730154 45.7586304 26.5 61 26.5 52.4127051"></polygon>
                    <polygon id="Shape" fill="#0051A4" points="45.5374061 19.5495848 45.5374061 41.4446594 45.4681477 41.4878279 26.5 52.409464 26.5 61 52.9220843 45.7874127 53 45.7442442 53 15.25"></polygon>
                    <polygon id="Shape" fill="#007BC7" points="0 14.9369501 0 14.9458944 6.96560346 19.4090909 6.96560346 19.3912023 6.97368421 19.3822581 6.97368421 9.27521994 0 4.15909091"></polygon>
                    <polygon id="Shape" fill="#007BC7" points="26.7842129 0 15.3421053 6.59806397 15.3421053 15.121633 26.7842129 8.51501122 45.6174425 19.3834175 45.6174425 19.4090909 53 15.1473064 53 15.121633"></polygon>
                    <polygon id="Shape" fill="#727171" points="35.3410561 36.0454545 35.3410561 36.1224069 26.5 41.3466159 26.5 45.75 39.0526316 38.3198238 39.0526316 38.2257709"></polygon>
                    <polygon id="Shape" fill="#898989" points="27.1973684 15.25 13.9473684 22.704465 13.9473684 22.7645817 17.8651425 24.9545455 17.8651425 24.9201931 27.1973684 19.66428 36.5295943 24.9201931 36.5295943 24.9287812 40.4473684 22.7302293 40.4473684 22.704465"></polygon>
                    <polygon id="Shape" fill="#B5B6B6" points="17.6589439 36.1472598 17.6589439 36.1216752 17.6589439 25.7428699 13.9473684 23.5681818 13.9473684 38.3134197 13.9473684 38.3390042 26.5 45.75 26.5 41.3579829"></polygon>
                </g>
            </g>
        </g>
    </g>
</svg>