<?xml version="1.0" encoding="utf-8"?>
<!-- Generator: Adobe Illustrator 21.0.2, SVG Export Plug-In . SVG Version: 6.00 Build 0)  -->
<svg version="1.1" id="Layer_1" xmlns="http://www.w3.org/2000/svg" xmlns:xlink="http://www.w3.org/1999/xlink" x="0px" y="0px"
	 viewBox="0 0 188 112" style="enable-background:new 0 0 188 112;" xml:space="preserve">
<style type="text/css">
	.st0{fill:#0051A4;}
	.st1{fill:#898989;}
	.st2{fill:#63A7DC;}
	.st3{fill:#007BC7;}
	.st4{fill:#727171;}
	.st5{fill:#B5B6B6;}
</style>
<title>BIC</title>
<desc>Created with Sketch.</desc>
<g id="Asset-2" transform="translate(82.000000, 0.000000)">
	<g id="Group-2" transform="translate(0.000000, 67.000000)">
		<g id="Group-3" transform="translate(27.000000, 0.000000)">
			<path id="Shape" class="st0" d="M-77,0h5c1.2-0.1,2.5,0.2,3.5,0.9c1.1,0.8,1.8,2.1,1.7,3.4c0,1.5-0.8,2.9-2.1,3.6
				c1.8,0.5,3.1,2.3,3,4.2c0.1,1.6-0.7,3-2,3.9c-1.2,0.9-2.2,1-4.2,1H-77V0z M-74.4,7h2.2c0.6,0,1.2-0.1,1.7-0.3
				c0.8-0.4,1.2-1.2,1.1-2.1c0-0.8-0.4-1.6-1.1-2c-0.6-0.2-1.2-0.3-1.8-0.3h-2.1V7z M-74.4,14.6h2.7c0.6,0,1.2-0.1,1.8-0.3
				c0.9-0.4,1.4-1.4,1.4-2.4S-69,10-69.9,9.6c-0.6-0.2-1.3-0.3-2-0.3h-2.5V14.6z"/>
			<polygon id="Shape_1_" class="st0" points="-63.1,0 -60.3,0 -60.3,17 -63.1,17 			"/>
			<path id="Shape_2_" class="st0" d="M-58.9,10.6c0-3.5,2.8-6.4,6.3-6.4s6.3,2.8,6.3,6.4s-2.8,6.4-6.3,6.4S-58.9,14.1-58.9,10.6z
				 M-56.7,10.6c-0.1,1.5,0.7,2.9,2,3.7c1.3,0.8,2.9,0.8,4.1,0c1.3-0.8,2-2.2,2-3.7c0.1-1.5-0.7-2.9-2-3.7s-2.9-0.8-4.1,0
				C-56,7.7-56.7,9.1-56.7,10.6z"/>
			<path id="Shape_3_" class="st0" d="M-31.1,12.4c-0.9,3-3.9,5-7,4.5s-5.5-3.1-5.5-6.3c0-3.2,2.4-5.9,5.5-6.3s6.1,1.5,7,4.6h-2.4
				c-0.5-1.3-1.7-2.2-3-2.4c-1.3-0.3-2.7,0.1-3.7,1.1c-0.8,0.8-1.2,1.9-1.2,3c0,1.1,0.4,2.2,1.1,3c0.8,0.8,1.8,1.2,3,1.2
				c1.6,0,3.1-0.9,3.7-2.4H-31.1z"/>
			<polygon id="Shape_4_" class="st0" points="-28.3,0 -26,0 -26,9.4 -21.5,4.5 -18.7,4.5 -24,10 -18.6,17 -21.2,17 -26.1,10.5 
				-26.1,17 -28.3,17 			"/>
			<path id="Shape_5_" class="st0" d="M-4.7,12.4c-0.9,3-3.9,5-7,4.5c-3.1-0.5-5.5-3.1-5.5-6.3c0-3.2,2.4-5.9,5.5-6.3
				c3.2-0.4,6.1,1.5,7,4.6h-2.4c-0.5-1.3-1.7-2.2-3-2.4c-1.3-0.3-2.7,0.1-3.7,1.1c-0.8,0.8-1.2,1.9-1.2,3c0,1.1,0.4,2.2,1.1,3
				c0.8,0.8,1.8,1.2,3,1.2c1.6,0,3.1-0.9,3.7-2.4H-4.7z"/>
			<path id="Shape_6_" class="st0" d="M-3.3,0H-1v6.2C-0.2,4.8,1.3,4,2.9,4.1C4.4,4,5.9,4.7,6.8,5.9c0.8,1.3,1.1,2.8,1,4.3V17H5.5
				v-6.7c0.1-1-0.2-2-0.7-2.8C4.1,6.8,3.2,6.4,2.3,6.4S0.4,6.8-0.3,7.5C-0.8,8.2-1,9.1-1,9.9v7h-2.3V0z"/>
			<path id="Shape_7_" class="st0" d="M23.1,16.6h-2.2v-2.1C20,16.1,18.4,17,16.6,17c-3.8,0-6-3-6-6.4c-0.1-1.7,0.5-3.3,1.7-4.5
				c1.1-1.2,2.7-1.9,4.3-1.9c1.8-0.1,3.4,0.9,4.3,2.4V4.6h2.3V16.6z M12.8,10.6c0,1.1,0.4,2.2,1.2,3c0.8,0.8,1.8,1.2,2.9,1.2
				c1.6,0,3-0.9,3.6-2.4c0.3-0.6,0.4-1.2,0.4-1.8c0-0.6-0.1-1.2-0.3-1.8c-0.6-1.5-2.1-2.5-3.7-2.5c-1.1,0-2.1,0.4-2.9,1.2
				C13.2,8.4,12.8,9.5,12.8,10.6L12.8,10.6z"/>
			<path id="Shape_8_" class="st0" d="M27.3,0h2.8v2.5h-2.8V0z M27.3,4.5h2.8V17h-2.8V4.5z"/>
			<path id="Shape_9_" class="st0" d="M32.9,4.6H35v1.9c0.6-1.3,1.9-2.3,4.1-2.3C43,4.2,44,7.1,44,9.7V17h-2.3v-6.7
				c0-2.2-0.8-3.8-3.2-3.8c-2.4,0-3.3,1.5-3.3,3.6v6.9h-2.3V4.6z"/>
		</g>
		<g id="Group-4" transform="translate(0.000000, 25.000000)">
			<polygon id="Shape_10_" class="st1" points="-77,0 -74.2,0 -74.2,17 -77,17 			"/>
			<path id="Shape_11_" class="st1" d="M-71.4,4.6h2.2v1.9c0.6-1.3,1.9-2.3,4.1-2.3c3.9,0,4.9,2.9,4.9,5.5V17h-2.3v-6.7
				c0-2.2-0.8-3.8-3.2-3.8c-2.4,0-3.3,1.5-3.3,3.6V17h-2.3V4.6z"/>
			<polygon id="Shape_12_" class="st1" points="-52.3,17 -54.5,17 -58.9,4.3 -56.6,4.3 -53.4,14 -50.1,4.3 -47.8,4.3 			"/>
			<path id="Shape_13_" class="st1" d="M-44.1,11.3c0.1,2.1,1.9,3.7,4,3.7c1.4,0.1,2.8-0.7,3.4-2h2.4c-0.5,1.2-1.3,2.3-2.4,3
				c-1,0.7-2.2,1-3.4,1c-2.8,0-5.3-1.9-6.1-4.7s0.4-5.7,2.9-7.1c2.4-1.5,5.5-1.1,7.6,0.9c1.4,1.4,2,3.4,1.8,5.3L-44.1,11.3z
				 M-36.2,9.6c-0.3-2-2-3.4-3.9-3.4c-2-0.1-3.7,1.4-3.9,3.4H-36.2z"/>
			<path id="Shape_14_" class="st1" d="M-26.7,7.8c0-0.5-0.1-0.9-0.5-1.2s-0.8-0.5-1.2-0.4c-0.4,0-0.8,0.1-1.1,0.4
				C-29.9,6.8-30,7.3-30,7.7c0,0.9,0.9,1.4,2.1,1.7c1.8,0.5,3.7,1,3.8,3.6c0,2.3-1.8,3.9-4.1,3.9c-1.8,0-4.1-1.1-4.2-3.8h2.2
				c0,0.5,0.2,1.1,0.6,1.4c0.4,0.4,0.9,0.6,1.4,0.5c0.5,0,1-0.1,1.3-0.5c0.4-0.3,0.6-0.8,0.6-1.3c0-1.2-0.9-1.6-3-2.3
				c-1.6-0.5-2.9-1.3-2.9-3.1c0-2.3,1.8-3.6,3.9-3.6c1.6,0,3.7,0.8,3.9,3.5H-26.7z"/>
			<polygon id="Shape_15_" class="st1" points="-20.5,6.4 -22.8,6.4 -22.8,4.5 -20.6,4.5 -20.6,0 -18.2,0 -18.2,4.5 -15.8,4.5 
				-15.8,6.4 -18.2,6.4 -18.2,17 -20.6,17 			"/>
			<path id="Shape_16_" class="st1" d="M-13,4.6h2.1v1.7c0.8-1.3,2.1-2.1,3.6-2.1c1.2,0,2.3,0.4,3.1,1.3C-3.9,6-3.7,6.4-3.4,6.8
				c0.2-0.4,0.5-0.9,0.8-1.2c1.8-1.7,4.5-1.7,6.3,0C4.8,6.7,5,7.8,5,10.2V17H2.8v-6.7c0.1-1-0.2-1.9-0.7-2.7C1.6,6.8,0.8,6.4,0,6.5
				c-0.9,0-1.8,0.4-2.3,1.2c-0.4,0.7-0.6,1.6-0.5,2.5v6.8h-2.3v-6.8C-5,9.3-5.2,8.5-5.6,7.7C-6.1,7-6.9,6.5-7.8,6.5
				c-0.9,0-1.7,0.5-2.3,1.2c-0.5,0.8-0.7,1.6-0.6,2.5V17H-13L-13,4.6z"/>
			<path id="Shape_17_" class="st1" d="M8.7,11.3c0.1,2.1,1.9,3.7,4,3.7c1.4,0.1,2.8-0.7,3.4-2h2.4c-0.5,1.2-1.3,2.3-2.4,3
				c-1,0.7-2.2,1-3.4,1c-2.8,0-5.3-1.9-6.1-4.7s0.4-5.7,2.9-7.1C12,3.7,15.1,4.1,17.1,6c1.4,1.4,2,3.4,1.8,5.3L8.7,11.3z M16.6,9.6
				c-0.3-2-2-3.4-3.9-3.4c-2-0.1-3.7,1.4-3.9,3.4H16.6z"/>
			<path id="Shape_18_" class="st1" d="M21.7,4.6h2.2v1.9c0.6-1.3,1.9-2.3,4.1-2.3c3.9,0,4.9,2.9,4.9,5.5V17h-2.3v-6.7
				c0-2.2-0.8-3.8-3.2-3.8S24,8,24,10.1V17h-2.3V4.6z"/>
			<polygon id="Shape_19_" class="st1" points="37.8,6.4 35.6,6.4 35.6,4.5 37.9,4.5 37.9,0 40.2,0 40.2,4.5 42.6,4.5 42.6,6.4 
				40.2,6.4 40.2,17 37.8,17 			"/>
			<path id="Shape_20_" class="st1" d="M66.2,11.7c-1.2,3.2-4.3,5.3-7.8,5.3c-3.1,0.1-6-1.5-7.6-4.2c-1.6-2.7-1.6-6,0-8.6
				c1.6-2.7,4.5-4.3,7.6-4.2c3.5,0,6.6,2.1,7.9,5.4h-2.8c-1-1.9-3-3-5.1-3.1c-1.6,0-3.2,0.7-4.3,1.8s-1.7,2.7-1.7,4.3
				c-0.1,1.6,0.5,3.2,1.7,4.3c1.1,1.2,2.7,1.8,4.3,1.9c2.1,0,4.1-1.2,5.1-3H66.2z"/>
			<polygon id="Shape_21_" class="st1" points="70,0 72.8,0 72.8,17 70,17 			"/>
			<path id="Shape_22_" class="st1" d="M85.7,16.6h-2.2v-1.9C83,16,81.6,17,79.5,17c-3.9,0-4.9-2.9-4.9-5.5V4.3h2.3V11
				c0,2.2,0.8,3.8,3.2,3.8s3.3-1.5,3.3-3.6V4.3h2.3L85.7,16.6z"/>
			<path id="Shape_23_" class="st1" d="M88.5,0h2.2v6.4c1-1.4,2.6-2.3,4.3-2.3c1.6,0,3.2,0.7,4.3,1.9c1.1,1.2,1.7,2.9,1.6,4.5
				c0.1,1.7-0.5,3.4-1.7,4.6C98.2,16.3,96.6,17,95,17c-1.8,0.1-3.4-0.9-4.3-2.5v2.1h-2.2V0z M98.8,10.5c0-2.3-1.8-4.2-4.1-4.2
				s-4.1,1.9-4.1,4.2c0,1.1,0.4,2.2,1.1,3c0.8,0.8,1.8,1.3,2.9,1.3c1.1,0,2.2-0.4,2.9-1.2C98.3,12.8,98.8,11.7,98.8,10.5L98.8,10.5z
				"/>
		</g>
	</g>
	<g id="Group" transform="translate(60.000000, 0.000000)">
		<polygon id="Shape_24_" class="st2" points="-67,41.5 -67,41.5 -67,19.6 -74.5,15.2 -74.5,45.8 -74.5,45.8 -48,61 -48,52.4 		"/>
		<polygon id="Shape_25_" class="st0" points="-29,19.5 -29,41.4 -29,41.5 -48,52.4 -48,61 -21.6,45.8 -21.5,45.7 -21.5,15.2 		"/>
		<polygon id="Shape_26_" class="st3" points="-74.5,14.9 -74.5,14.9 -67.5,19.4 -67.5,19.4 -67.5,19.4 -67.5,9.3 -74.5,4.2 		"/>
		<polygon id="Shape_27_" class="st3" points="-47.7,0 -59.2,6.6 -59.2,15.1 -47.7,8.5 -28.9,19.4 -28.9,19.4 -21.5,15.1 
			-21.5,15.1 		"/>
		<polygon id="Shape_28_" class="st4" points="-39.2,36 -39.2,36.1 -48,41.3 -48,45.8 -35.4,38.3 -35.4,38.2 		"/>
		<polygon id="Shape_29_" class="st1" points="-47.3,15.2 -60.6,22.7 -60.6,22.8 -56.6,25 -56.6,24.9 -47.3,19.7 -38,24.9 -38,24.9 
			-34.1,22.7 -34.1,22.7 		"/>
		<polygon id="Shape_30_" class="st5" points="-56.8,36.1 -56.8,36.1 -56.8,25.7 -60.6,23.6 -60.6,38.3 -60.6,38.3 -48,45.8 
			-48,41.4 		"/>
	</g>
</g>
</svg>
